<svg width="128" height="128" viewBox="0 0 128 128" fill="none" xmlns="http://www.w3.org/2000/svg">
  <rect x="8" y="8" width="112" height="112" rx="22" fill="#211C18"/>
  <rect x="12.5" y="12.5" width="103" height="103" rx="18.5" stroke="#F8F3EA" stroke-opacity=".18"/>
  <path d="M31 38.8c10.8-4.8 21.5-3.5 32 4.1v52.4c-10.4-7.1-21.1-8.2-32-3.3V38.8Z" fill="#F8F3EA"/>
  <path d="M97 38.8c-10.8-4.8-21.5-3.5-32 4.1v52.4c10.4-7.1 21.1-8.2 32-3.3V38.8Z" fill="#F8F3EA"/>
  <path d="M63.9 42.6v53.8" stroke="#9E3229" stroke-width="3.5" stroke-linecap="round"/>
  <path d="M27.5 78.1c19.7-3.9 39.2-3.8 58.5.2 8.8 1.8 15.7.2 20.7-4.8-4.4 12.2-13.4 17.4-27 15.7-18.6-2.3-36.9-1.6-54.8 2.1-4.7 1-7.9-.3-9.7-3.7 2.5-4.6 6.6-7.1 12.3-9.5Z" fill="#9E3229"/>
  <path d="M42.3 29.3c7.5 5.6 15.1 8.7 22.8 9.2 7.7.5 15-2.1 21.9-7.7" stroke="#F7C46B" stroke-width="5" stroke-linecap="round"/>
  <path d="M47.2 86.2c8.8-3.1 18.4-3.1 28.8 0" stroke="#F8F3EA" stroke-width="3.8" stroke-linecap="round" opacity=".74"/>
</svg>
